<svg xmlns="http://www.w3.org/2000/svg" viewBox="0 0 64 64">
  <circle cx="32" cy="32" r="32" fill="#2a2018"/>
  <path d="M20 40 V30 a4 4 0 0 1 4-4 h12 a4 4 0 0 1 4 4 v10 a8 8 0 0 1-8 8 h-4 a8 8 0 0 1-8-8 z" fill="#f7f1e4"/>
  <path d="M40 32 h3 a5 5 0 0 1 0 10 h-3" fill="none" stroke="#f7f1e4" stroke-width="3" stroke-linecap="round"/>
  <path d="M22 30 a9 9 0 0 1 3-6" fill="none" stroke="#a7d18c" stroke-width="3" stroke-linecap="round"/>
  <path d="M27 28 a9 9 0 0 1 3-6" fill="none" stroke="#a7d18c" stroke-width="3" stroke-linecap="round"/>
</svg>
